0
SECTION
2
ENTITIES
0
LINE
8
PARAMETRIX
10
74.3343
20
-3.2263
11
74.9295
21
-3.2522
0
ARC
8
PARAMETRIX
10
75.2466
20
4.0542
40
7.3133
50
267.5147
51
282.3673
0
ARC
8
PARAMETRIX
10
70.5633
20
25.4129
40
29.1794
50
282.3673
51
289.7873
0
ARC
8
PARAMETRIX
10
68.5930
20
30.8897
40
34.9998
50
289.7873
51
302.1639
0
ARC
8
PARAMETRIX
10
58.1223
20
47.5400
40
54.6688
50
302.1639
51
312.0599
0
LINE
8
PARAMETRIX
10
94.7453
20
6.9515
11
94.4094
21
10.5763
0
ARC
8
PARAMETRIX
10
65.8681
20
-36.0506
40
54.6688
50
58.5283
51
68.4243
0
ARC
8
PARAMETRIX
10
73.1010
20
-17.7598
40
34.9998
50
68.4243
51
80.8009
0
ARC
8
PARAMETRIX
10
74.0315
20
-12.0142
40
29.1794
50
80.8009
51
88.2209
0
ARC
8
PARAMETRIX
10
74.7103
20
9.8413
40
7.3133
50
88.2209
51
103.0735
0
LINE
8
PARAMETRIX
10
73.0561
20
16.9651
11
72.4758
21
16.8303
0
ARC
8
PARAMETRIX
10
72.0234
20
18.7785
40
2.0000
50
195.8824
51
283.0735
0
LINE
8
PARAMETRIX
10
70.0997
20
18.2311
11
69.1974
21
21.4023
0
ARC
8
PARAMETRIX
10
71.1211
20
21.9496
40
2.0000
50
108.6912
51
195.8824
0
LINE
8
PARAMETRIX
10
70.4802
20
23.8442
11
71.0445
21
24.0351
0
ARC
8
PARAMETRIX
10
68.7008
20
30.9626
40
7.3133
50
288.6912
51
303.5438
0
ARC
8
PARAMETRIX
10
56.6182
20
49.1872
40
29.1794
50
303.5438
51
310.9638
0
ARC
8
PARAMETRIX
10
52.8024
20
53.5824
40
34.9998
50
310.9638
51
323.3404
0
ARC
8
PARAMETRIX
10
37.0240
20
65.3259
40
54.6688
50
323.3404
51
333.2364
0
LINE
8
PARAMETRIX
10
85.8362
20
40.7080
11
84.2136
21
43.9667
0
ARC
8
PARAMETRIX
10
74.4432
20
-9.8219
40
54.6688
50
79.7048
51
89.6008
0
ARC
8
PARAMETRIX
10
74.5802
20
9.8466
40
34.9998
50
89.6008
51
101.9774
0
ARC
8
PARAMETRIX
10
73.3723
20
15.5403
40
29.1794
50
101.9774
51
109.3974
0
ARC
8
PARAMETRIX
10
66.1102
20
36.1653
40
7.3133
50
109.3974
51
124.2500
0
LINE
8
PARAMETRIX
10
61.9943
20
42.2103
11
61.5018
21
41.8751
0
ARC
8
PARAMETRIX
10
60.3762
20
43.5282
40
2.0000
50
217.0588
51
304.2500
0
LINE
8
PARAMETRIX
10
58.7802
20
42.3230
11
56.7933
21
44.9541
0
ARC
8
PARAMETRIX
10
58.3893
20
46.1593
40
2.0000
50
129.8677
51
217.0588
0
LINE
8
PARAMETRIX
10
57.1073
20
47.6944
11
57.5645
21
48.0763
0
ARC
8
PARAMETRIX
10
52.8766
20
53.6894
40
7.3133
50
309.8677
51
324.7202
0
ARC
8
PARAMETRIX
10
35.0264
20
66.3186
40
29.1794
50
324.7202
51
332.1403
0
ARC
8
PARAMETRIX
10
29.8806
20
69.0385
40
34.9998
50
332.1403
51
344.5169
0
ARC
8
PARAMETRIX
10
10.9254
20
74.2892
40
54.6688
50
344.5169
51
354.4129
0
LINE
8
PARAMETRIX
10
65.3345
20
68.9667
11
62.6442
21
71.4192
0
ARC
8
PARAMETRIX
10
72.9643
20
17.7333
40
54.6688
50
100.8812
51
110.7772
0
ARC
8
PARAMETRIX
10
65.9870
20
36.1232
40
34.9998
50
110.7772
51
123.1538
0
ARC
8
PARAMETRIX
10
62.8038
20
40.9961
40
29.1794
50
123.1538
51
130.5739
0
ARC
8
PARAMETRIX
10
48.5815
20
57.6049
40
7.3133
50
130.5739
51
145.4264
0
LINE
8
PARAMETRIX
10
42.5598
20
61.7549
11
42.2217
21
61.2644
0
ARC
8
PARAMETRIX
10
40.5749
20
62.3993
40
2.0000
50
238.2353
51
325.4264
0
LINE
8
PARAMETRIX
10
39.5221
20
60.6989
11
36.7189
21
62.4345
0
ARC
8
PARAMETRIX
10
37.7717
20
64.1350
40
2.0000
50
151.0441
51
238.2353
0
LINE
8
PARAMETRIX
10
36.0218
20
65.1032
11
36.3102
21
65.6245
0
ARC
8
PARAMETRIX
10
29.9111
20
69.1651
40
7.3133
50
331.0441
51
345.8967
0
ARC
8
PARAMETRIX
10
8.7041
20
74.4932
40
29.1794
50
345.8967
51
353.3167
0
ARC
8
PARAMETRIX
10
2.9232
20
75.1706
40
34.9998
50
353.3167
51
5.6933
0
ARC
8
PARAMETRIX
10
-16.6488
20
73.2194
40
54.6688
50
5.6933
51
15.5893
0
LINE
8
PARAMETRIX
10
36.0089
20
87.9111
11
32.6144
21
89.2261
0
ARC
8
PARAMETRIX
10
61.6311
20
42.8936
40
54.6688
50
122.0577
51
131.9537
0
ARC
8
PARAMETRIX
10
48.4818
20
57.5211
40
34.9998
50
131.9537
51
144.3303
0
ARC
8
PARAMETRIX
10
43.7533
20
60.9151
40
29.1794
50
144.3303
51
151.7503
0
ARC
8
PARAMETRIX
10
24.4916
20
71.2646
40
7.3133
50
151.7503
51
166.6029
0
LINE
8
PARAMETRIX
10
17.3774
20
72.9591
11
17.2394
21
72.3796
0
ARC
8
PARAMETRIX
10
15.2938
20
72.8430
40
2.0000
50
259.4118
51
346.6029
0
LINE
8
PARAMETRIX
10
14.9263
20
70.8770
11
11.6854
21
71.4828
0
ARC
8
PARAMETRIX
10
12.0529
20
73.4488
40
2.0000
50
172.2206
51
259.4118
0
LINE
8
PARAMETRIX
10
10.0713
20
73.7195
11
10.1519
21
74.3097
0
ARC
8
PARAMETRIX
10
2.9060
20
75.2997
40
7.3133
50
352.2206
51
7.0732
0
ARC
8
PARAMETRIX
10
-18.7937
20
72.6071
40
29.1794
50
7.0732
51
14.4932
0
ARC
8
PARAMETRIX
10
-24.4289
20
71.1505
40
34.9998
50
14.4932
51
26.8698
0
ARC
8
PARAMETRIX
10
-41.9744
20
62.2608
40
54.6688
50
26.8698
51
36.7658
0
LINE
8
PARAMETRIX
10
1.8202
20
94.9826
11
-1.8202
21
94.9826
0
ARC
8
PARAMETRIX
10
41.9744
20
62.2608
40
54.6688
50
143.2342
51
153.1302
0
ARC
8
PARAMETRIX
10
24.4289
20
71.1505
40
34.9998
50
153.1302
51
165.5068
0
ARC
8
PARAMETRIX
10
18.7937
20
72.6071
40
29.1794
50
165.5068
51
172.9268
0
ARC
8
PARAMETRIX
10
-2.9060
20
75.2997
40
7.3133
50
172.9268
51
187.7794
0
LINE
8
PARAMETRIX
10
-10.1519
20
74.3097
11
-10.0713
21
73.7195
0
ARC
8
PARAMETRIX
10
-12.0529
20
73.4488
40
2.0000
50
280.5882
51
7.7794
0
LINE
8
PARAMETRIX
10
-11.6854
20
71.4828
11
-14.9263
21
70.8770
0
ARC
8
PARAMETRIX
10
-15.2938
20
72.8430
40
2.0000
50
193.3971
51
280.5882
0
LINE
8
PARAMETRIX
10
-17.2394
20
72.3796
11
-17.3774
21
72.9591
0
ARC
8
PARAMETRIX
10
-24.4916
20
71.2646
40
7.3133
50
13.3971
51
28.2497
0
ARC
8
PARAMETRIX
10
-43.7533
20
60.9151
40
29.1794
50
28.2497
51
35.6697
0
ARC
8
PARAMETRIX
10
-48.4818
20
57.5211
40
34.9998
50
35.6697
51
48.0463
0
ARC
8
PARAMETRIX
10
-61.6311
20
42.8936
40
54.6688
50
48.0463
51
57.9423
0
LINE
8
PARAMETRIX
10
-32.6144
20
89.2261
11
-36.0089
21
87.9111
0
ARC
8
PARAMETRIX
10
16.6488
20
73.2194
40
54.6688
50
164.4107
51
174.3067
0
ARC
8
PARAMETRIX
10
-2.9232
20
75.1706
40
34.9998
50
174.3067
51
186.6833
0
ARC
8
PARAMETRIX
10
-8.7041
20
74.4932
40
29.1794
50
186.6833
51
194.1033
0
ARC
8
PARAMETRIX
10
-29.9111
20
69.1651
40
7.3133
50
194.1033
51
208.9559
0
LINE
8
PARAMETRIX
10
-36.3102
20
65.6245
11
-36.0218
21
65.1032
0
ARC
8
PARAMETRIX
10
-37.7717
20
64.1350
40
2.0000
50
301.7647
51
28.9559
0
LINE
8
PARAMETRIX
10
-36.7189
20
62.4345
11
-39.5221
21
60.6989
0
ARC
8
PARAMETRIX
10
-40.5749
20
62.3993
40
2.0000
50
214.5736
51
301.7647
0
LINE
8
PARAMETRIX
10
-42.2217
20
61.2644
11
-42.5598
21
61.7549
0
ARC
8
PARAMETRIX
10
-48.5815
20
57.6049
40
7.3133
50
34.5736
51
49.4261
0
ARC
8
PARAMETRIX
10
-62.8038
20
40.9961
40
29.1794
50
49.4261
51
56.8462
0
ARC
8
PARAMETRIX
10
-65.9870
20
36.1232
40
34.9998
50
56.8462
51
69.2228
0
ARC
8
PARAMETRIX
10
-72.9643
20
17.7333
40
54.6688
50
69.2228
51
79.1188
0
LINE
8
PARAMETRIX
10
-62.6442
20
71.4192
11
-65.3345
21
68.9667
0
ARC
8
PARAMETRIX
10
-10.9254
20
74.2892
40
54.6688
50
185.5871
51
195.4831
0
ARC
8
PARAMETRIX
10
-29.8806
20
69.0385
40
34.9998
50
195.4831
51
207.8597
0
ARC
8
PARAMETRIX
10
-35.0264
20
66.3186
40
29.1794
50
207.8597
51
215.2798
0
ARC
8
PARAMETRIX
10
-52.8766
20
53.6894
40
7.3133
50
215.2798
51
230.1323
0
LINE
8
PARAMETRIX
10
-57.5645
20
48.0763
11
-57.1073
21
47.6944
0
ARC
8
PARAMETRIX
10
-58.3893
20
46.1593
40
2.0000
50
322.9412
51
50.1323
0
LINE
8
PARAMETRIX
10
-56.7933
20
44.9541
11
-58.7802
21
42.3230
0
ARC
8
PARAMETRIX
10
-60.3762
20
43.5282
40
2.0000
50
235.7500
51
322.9412
0
LINE
8
PARAMETRIX
10
-61.5018
20
41.8751
11
-61.9943
21
42.2103
0
ARC
8
PARAMETRIX
10
-66.1102
20
36.1653
40
7.3133
50
55.7500
51
70.6026
0
ARC
8
PARAMETRIX
10
-73.3723
20
15.5403
40
29.1794
50
70.6026
51
78.0226
0
ARC
8
PARAMETRIX
10
-74.5802
20
9.8466
40
34.9998
50
78.0226
51
90.3992
0
ARC
8
PARAMETRIX
10
-74.4432
20
-9.8219
40
54.6688
50
90.3992
51
100.2952
0
LINE
8
PARAMETRIX
10
-84.2136
20
43.9667
11
-85.8362
21
40.7080
0
ARC
8
PARAMETRIX
10
-37.0240
20
65.3259
40
54.6688
50
206.7636
51
216.6596
0
ARC
8
PARAMETRIX
10
-52.8024
20
53.5824
40
34.9998
50
216.6596
51
229.0362
0
ARC
8
PARAMETRIX
10
-56.6182
20
49.1872
40
29.1794
50
229.0362
51
236.4562
0
ARC
8
PARAMETRIX
10
-68.7008
20
30.9626
40
7.3133
50
236.4562
51
251.3088
0
LINE
8
PARAMETRIX
10
-71.0445
20
24.0351
11
-70.4802
21
23.8442
0
ARC
8
PARAMETRIX
10
-71.1211
20
21.9496
40
2.0000
50
344.1176
51
71.3088
0
LINE
8
PARAMETRIX
10
-69.1974
20
21.4023
11
-70.0997
21
18.2311
0
ARC
8
PARAMETRIX
10
-72.0234
20
18.7785
40
2.0000
50
256.9265
51
344.1176
0
LINE
8
PARAMETRIX
10
-72.4758
20
16.8303
11
-73.0561
21
16.9651
0
ARC
8
PARAMETRIX
10
-74.7103
20
9.8413
40
7.3133
50
76.9265
51
91.7791
0
ARC
8
PARAMETRIX
10
-74.0315
20
-12.0142
40
29.1794
50
91.7791
51
99.1991
0
ARC
8
PARAMETRIX
10
-73.1010
20
-17.7598
40
34.9998
50
99.1991
51
111.5757
0
ARC
8
PARAMETRIX
10
-65.8681
20
-36.0506
40
54.6688
50
111.5757
51
121.4717
0
LINE
8
PARAMETRIX
10
-94.4094
20
10.5763
11
-94.7453
21
6.9515
0
ARC
8
PARAMETRIX
10
-58.1223
20
47.5400
40
54.6688
50
227.9401
51
237.8361
0
ARC
8
PARAMETRIX
10
-68.5930
20
30.8897
40
34.9998
50
237.8361
51
250.2127
0
ARC
8
PARAMETRIX
10
-70.5633
20
25.4129
40
29.1794
50
250.2127
51
257.6327
0
ARC
8
PARAMETRIX
10
-75.2466
20
4.0542
40
7.3133
50
257.6327
51
272.4853
0
LINE
8
PARAMETRIX
10
-74.9295
20
-3.2522
11
-74.3343
21
-3.2263
0
ARC
8
PARAMETRIX
10
-74.2476
20
-5.2245
40
2.0000
50
5.2941
51
92.4853
0
LINE
8
PARAMETRIX
10
-72.2561
20
-5.0399
11
-71.9519
21
-8.3229
0
ARC
8
PARAMETRIX
10
-73.9434
20
-8.5074
40
2.0000
50
278.1030
51
5.2941
0
LINE
8
PARAMETRIX
10
-73.6615
20
-10.4875
11
-74.2512
21
-10.5714
0
ARC
8
PARAMETRIX
10
-73.2204
20
-17.8117
40
7.3133
50
98.1030
51
112.9555
0
ARC
8
PARAMETRIX
10
-64.6923
20
-37.9462
40
29.1794
50
112.9555
51
120.3756
0
ARC
8
PARAMETRIX
10
-61.7491
20
-42.9676
40
34.9998
50
120.3756
51
132.7522
0
ARC
8
PARAMETRIX
10
-48.3972
20
-57.4105
40
54.6688
50
132.7522
51
142.6482
0
LINE
8
PARAMETRIX
10
-91.8548
20
-24.2425
11
-90.8586
21
-27.7439
0
ARC
8
PARAMETRIX
10
-71.3709
20
23.3336
40
54.6688
50
249.1165
51
259.0125
0
ARC
8
PARAMETRIX
10
-75.1197
20
4.0251
40
34.9998
50
259.0125
51
271.3891
0
ARC
8
PARAMETRIX
10
-74.9786
20
-1.7936
40
29.1794
50
271.3891
51
278.8092
0
ARC
8
PARAMETRIX
10
-71.6299
20
-23.4018
40
7.3133
50
278.8092
51
293.6617
0
LINE
8
PARAMETRIX
10
-68.6948
20
-30.1002
11
-68.1492
21
-29.8611
0
ARC
8
PARAMETRIX
10
-67.3465
20
-31.6930
40
2.0000
50
26.4706
51
113.6617
0
LINE
8
PARAMETRIX
10
-65.5562
20
-30.8015
11
-64.0866
21
-33.7529
0
ARC
8
PARAMETRIX
10
-65.8769
20
-34.6444
40
2.0000
50
299.2794
51
26.4706
0
LINE
8
PARAMETRIX
10
-64.8987
20
-36.3889
11
-65.4184
21
-36.6802
0
ARC
8
PARAMETRIX
10
-61.8417
20
-43.0592
40
7.3133
50
119.2794
51
134.1320
0
ARC
8
PARAMETRIX
10
-46.6160
20
-58.7533
40
29.1794
50
134.1320
51
141.5520
0
ARC
8
PARAMETRIX
10
-42.0576
20
-62.3725
40
34.9998
50
141.5520
51
153.9286
0
ARC
8
PARAMETRIX
10
-24.3900
20
-71.0168
40
54.6688
50
153.9286
51
163.8246
0
LINE
8
PARAMETRIX
10
-76.8946
20
-55.7873
11
-74.7008
21
-58.6923
0
ARC
8
PARAMETRIX
10
-74.9804
20
-4.0242
40
54.6688
50
270.2930
51
280.1890
0
ARC
8
PARAMETRIX
10
-71.5010
20
-23.3830
40
34.9998
50
280.1890
51
292.5656
0
ARC
8
PARAMETRIX
10
-69.2675
20
-28.7579
40
29.1794
50
292.5656
51
299.9856
0
ARC
8
PARAMETRIX
10
-58.3392
20
-47.6972
40
7.3133
50
299.9856
51
314.8382
0
LINE
8
PARAMETRIX
10
-53.1826
20
-52.8830
11
-52.7601
21
-52.4630
0
ARC
8
PARAMETRIX
10
-51.3499
20
-53.8812
40
2.0000
50
47.6471
51
134.8382
0
LINE
8
PARAMETRIX
10
-50.0025
20
-52.4032
11
-47.5660
21
-54.6244
0
ARC
8
PARAMETRIX
10
-48.9134
20
-56.1024
40
2.0000
50
320.4559
51
47.6471
0
LINE
8
PARAMETRIX
10
-47.3711
20
-57.3757
11
-47.7504
21
-57.8351
0
ARC
8
PARAMETRIX
10
-42.1109
20
-62.4913
40
7.3133
50
140.4559
51
155.3085
0
ARC
8
PARAMETRIX
10
-22.2440
20
-71.6255
40
29.1794
50
155.3085
51
162.7285
0
ARC
8
PARAMETRIX
10
-16.6860
20
-73.3535
40
34.9998
50
162.7285
51
175.1051
0
ARC
8
PARAMETRIX
10
2.9113
20
-75.0319
40
54.6688
50
175.1051
51
185.0011
0
LINE
8
PARAMETRIX
10
-51.5494
20
-79.7976
11
-48.4543
21
-81.7140
0
ARC
8
PARAMETRIX
10
-68.4634
20
-30.8385
40
54.6688
50
291.4695
51
301.3655
0
ARC
8
PARAMETRIX
10
-58.2258
20
-47.6332
40
34.9998
50
301.3655
51
313.7421
0
ARC
8
PARAMETRIX
10
-54.2015
20
-51.8382
40
29.1794
50
313.7421
51
321.1621
0
ARC
8
PARAMETRIX
10
-37.1695
20
-65.5509
40
7.3133
50
321.1621
51
336.0147
0
LINE
8
PARAMETRIX
10
-30.4877
20
-68.5237
11
-30.2455
21
-67.9794
0
ARC
8
PARAMETRIX
10
-28.4182
20
-68.7924
40
2.0000
50
68.8235
51
156.0147
0
LINE
8
PARAMETRIX
10
-27.6958
20
-66.9275
11
-24.6214
21
-68.1185
0
ARC
8
PARAMETRIX
10
-25.3438
20
-69.9835
40
2.0000
50
341.6324
51
68.8235
0
LINE
8
PARAMETRIX
10
-23.4457
20
-70.6137
11
-23.6334
21
-71.1791
0
ARC
8
PARAMETRIX
10
-16.6928
20
-73.4836
40
7.3133
50
161.6324
51
176.4849
0
ARC
8
PARAMETRIX
10
5.1322
20
-74.8242
40
29.1794
50
176.4849
51
183.9050
0
ARC
8
PARAMETRIX
10
10.9391
20
-74.4278
40
34.9998
50
183.9050
51
196.2816
0
ARC
8
PARAMETRIX
10
29.8193
20
-68.9135
40
54.6688
50
196.2816
51
206.1776
0
LINE
8
PARAMETRIX
10
-19.2422
20
-93.0308
11
-15.6638
21
-93.6998
0
ARC
8
PARAMETRIX
10
-52.7001
20
-53.4879
40
54.6688
50
312.6460
51
322.5420
0
ARC
8
PARAMETRIX
10
-37.0869
20
-65.4502
40
34.9998
50
322.5420
51
334.9185
0
ARC
8
PARAMETRIX
10
-31.8152
20
-67.9175
40
29.1794
50
334.9185
51
342.3386
0
ARC
8
PARAMETRIX
10
-10.9798
20
-74.5515
40
7.3133
50
342.3386
51
357.1911
0
LINE
8
PARAMETRIX
10
-3.6753
20
-74.9099
11
-3.6461
21
-74.3149
0
ARC
8
PARAMETRIX
10
-1.6485
20
-74.4129
40
2.0000
50
90.0000
51
177.1911
0
LINE
8
PARAMETRIX
10
-1.6485
20
-72.4129
11
1.6485
21
-72.4129
0
ARC
8
PARAMETRIX
10
1.6485
20
-74.4129
40
2.0000
50
2.8089
51
90.0000
0
LINE
8
PARAMETRIX
10
3.6461
20
-74.3149
11
3.6753
21
-74.9099
0
ARC
8
PARAMETRIX
10
10.9798
20
-74.5515
40
7.3133
50
182.8089
51
197.6614
0
ARC
8
PARAMETRIX
10
31.8152
20
-67.9175
40
29.1794
50
197.6614
51
205.0815
0
ARC
8
PARAMETRIX
10
37.0869
20
-65.4502
40
34.9998
50
205.0815
51
217.4580
0
ARC
8
PARAMETRIX
10
52.7001
20
-53.4879
40
54.6688
50
217.4580
51
227.3540
0
LINE
8
PARAMETRIX
10
15.6638
20
-93.6998
11
19.2422
21
-93.0308
0
ARC
8
PARAMETRIX
10
-29.8193
20
-68.9135
40
54.6688
50
333.8224
51
343.7184
0
ARC
8
PARAMETRIX
10
-10.9391
20
-74.4278
40
34.9998
50
343.7184
51
356.0950
0
ARC
8
PARAMETRIX
10
-5.1322
20
-74.8242
40
29.1794
50
356.0950
51
3.5151
0
ARC
8
PARAMETRIX
10
16.6928
20
-73.4836
40
7.3133
50
3.5151
51
18.3676
0
LINE
8
PARAMETRIX
10
23.6334
20
-71.1791
11
23.4457
21
-70.6137
0
ARC
8
PARAMETRIX
10
25.3438
20
-69.9835
40
2.0000
50
111.1765
51
198.3676
0
LINE
8
PARAMETRIX
10
24.6214
20
-68.1185
11
27.6958
21
-66.9275
0
ARC
8
PARAMETRIX
10
28.4182
20
-68.7924
40
2.0000
50
23.9853
51
111.1765
0
LINE
8
PARAMETRIX
10
30.2455
20
-67.9794
11
30.4877
21
-68.5237
0
ARC
8
PARAMETRIX
10
37.1695
20
-65.5509
40
7.3133
50
203.9853
51
218.8379
0
ARC
8
PARAMETRIX
10
54.2015
20
-51.8382
40
29.1794
50
218.8379
51
226.2579
0
ARC
8
PARAMETRIX
10
58.2258
20
-47.6332
40
34.9998
50
226.2579
51
238.6345
0
ARC
8
PARAMETRIX
10
68.4634
20
-30.8385
40
54.6688
50
238.6345
51
248.5305
0
LINE
8
PARAMETRIX
10
48.4543
20
-81.7140
11
51.5494
21
-79.7976
0
ARC
8
PARAMETRIX
10
-2.9113
20
-75.0319
40
54.6688
50
354.9989
51
4.8949
0
ARC
8
PARAMETRIX
10
16.6860
20
-73.3535
40
34.9998
50
4.8949
51
17.2715
0
ARC
8
PARAMETRIX
10
22.2440
20
-71.6255
40
29.1794
50
17.2715
51
24.6915
0
ARC
8
PARAMETRIX
10
42.1109
20
-62.4913
40
7.3133
50
24.6915
51
39.5441
0
LINE
8
PARAMETRIX
10
47.7504
20
-57.8351
11
47.3711
21
-57.3757
0
ARC
8
PARAMETRIX
10
48.9134
20
-56.1024
40
2.0000
50
132.3529
51
219.5441
0
LINE
8
PARAMETRIX
10
47.5660
20
-54.6244
11
50.0025
21
-52.4032
0
ARC
8
PARAMETRIX
10
51.3499
20
-53.8812
40
2.0000
50
45.1618
51
132.3529
0
LINE
8
PARAMETRIX
10
52.7601
20
-52.4630
11
53.1826
21
-52.8830
0
ARC
8
PARAMETRIX
10
58.3392
20
-47.6972
40
7.3133
50
225.1618
51
240.0144
0
ARC
8
PARAMETRIX
10
69.2675
20
-28.7579
40
29.1794
50
240.0144
51
247.4344
0
ARC
8
PARAMETRIX
10
71.5010
20
-23.3830
40
34.9998
50
247.4344
51
259.8110
0
ARC
8
PARAMETRIX
10
74.9804
20
-4.0242
40
54.6688
50
259.8110
51
269.7070
0
LINE
8
PARAMETRIX
10
74.7008
20
-58.6923
11
76.8946
21
-55.7873
0
ARC
8
PARAMETRIX
10
24.3900
20
-71.0168
40
54.6688
50
16.1754
51
26.0714
0
ARC
8
PARAMETRIX
10
42.0576
20
-62.3725
40
34.9998
50
26.0714
51
38.4480
0
ARC
8
PARAMETRIX
10
46.6160
20
-58.7533
40
29.1794
50
38.4480
51
45.8680
0
ARC
8
PARAMETRIX
10
61.8417
20
-43.0592
40
7.3133
50
45.8680
51
60.7206
0
LINE
8
PARAMETRIX
10
65.4184
20
-36.6802
11
64.8987
21
-36.3889
0
ARC
8
PARAMETRIX
10
65.8769
20
-34.6444
40
2.0000
50
153.5294
51
240.7206
0
LINE
8
PARAMETRIX
10
64.0866
20
-33.7529
11
65.5562
21
-30.8015
0
ARC
8
PARAMETRIX
10
67.3465
20
-31.6930
40
2.0000
50
66.3383
51
153.5294
0
LINE
8
PARAMETRIX
10
68.1492
20
-29.8611
11
68.6948
21
-30.1002
0
ARC
8
PARAMETRIX
10
71.6299
20
-23.4018
40
7.3133
50
246.3383
51
261.1908
0
ARC
8
PARAMETRIX
10
74.9786
20
-1.7936
40
29.1794
50
261.1908
51
268.6109
0
ARC
8
PARAMETRIX
10
75.1197
20
4.0251
40
34.9998
50
268.6109
51
280.9875
0
ARC
8
PARAMETRIX
10
71.3709
20
23.3336
40
54.6688
50
280.9875
51
290.8835
0
LINE
8
PARAMETRIX
10
90.8586
20
-27.7439
11
91.8548
21
-24.2425
0
ARC
8
PARAMETRIX
10
48.3972
20
-57.4105
40
54.6688
50
37.3518
51
47.2478
0
ARC
8
PARAMETRIX
10
61.7491
20
-42.9676
40
34.9998
50
47.2478
51
59.6244
0
ARC
8
PARAMETRIX
10
64.6923
20
-37.9462
40
29.1794
50
59.6244
51
67.0445
0
ARC
8
PARAMETRIX
10
73.2204
20
-17.8117
40
7.3133
50
67.0445
51
81.8970
0
LINE
8
PARAMETRIX
10
74.2512
20
-10.5714
11
73.6615
21
-10.4875
0
ARC
8
PARAMETRIX
10
73.9434
20
-8.5074
40
2.0000
50
174.7059
51
261.8970
0
LINE
8
PARAMETRIX
10
71.9519
20
-8.3229
11
72.2561
21
-5.0399
0
ARC
8
PARAMETRIX
10
74.2476
20
-5.2245
40
2.0000
50
87.5147
51
174.7059
0
LINE
8
PARAMETRIX
10
16.0000
20
4.0000
11
10.3923
21
4.0000
0
ARC
8
PARAMETRIX
10
10.3923
20
6.0000
40
2.0000
50
210.0000
51
270.0000
0
ARC
8
PARAMETRIX
10
0.0000
20
0.0000
40
10.0000
50
30.0000
51
330.0000
0
ARC
8
PARAMETRIX
10
10.3923
20
-6.0000
40
2.0000
50
90.0000
51
150.0000
0
LINE
8
PARAMETRIX
10
10.3923
20
-4.0000
11
16.0000
21
-4.0000
0
ARC
8
PARAMETRIX
10
16.0000
20
-2.0000
40
2.0000
50
270.0000
51
360.0000
0
LINE
8
PARAMETRIX
10
18.0000
20
-2.0000
11
18.0000
21
2.0000
0
ARC
8
PARAMETRIX
10
16.0000
20
2.0000
40
2.0000
50
360.0000
51
90.0000
0
ARC
8
PARAMETRIX
10
0.0000
20
0.0000
40
52.5000
50
13.7162
51
346.2838
0
ARC
8
PARAMETRIX
10
47.1169
20
-11.5000
40
4.0000
50
346.2838
51
90.0000
0
LINE
8
PARAMETRIX
10
47.1169
20
-7.5000
11
24.4285
21
-7.5000
0
ARC
8
PARAMETRIX
10
24.4285
20
-11.5000
40
4.0000
50
90.0000
51
154.7907
0
ARC
8
PARAMETRIX
10
-0.0000
20
0.0000
40
23.0000
50
25.2093
51
334.7907
0
ARC
8
PARAMETRIX
10
24.4285
20
11.5000
40
4.0000
50
205.2093
51
270.0000
0
LINE
8
PARAMETRIX
10
24.4285
20
7.5000
11
47.1169
21
7.5000
0
ARC
8
PARAMETRIX
10
47.1169
20
11.5000
40
4.0000
50
270.0000
51
13.7162
0
ENDSEC
0
EOF
