<svg width="218" height="218" viewBox="-106 -105 218 218" xmlns="http://www.w3.org/2000/svg"><path d="M 74.3343 4.5092 L 74.9295 4.5350 A 7.3133 7.3133 0 0 0 76.8129 4.3722 A 29.1794 29.1794 0 0 0 80.4414 3.3264 A 34.9998 34.9998 0 0 0 87.2249 0.0215 A 54.6688 54.6688 0 0 0 94.7453 -5.6687 L 94.4094 -9.2935 A 54.6688 54.6688 0 0 0 85.9715 -13.5049 A 34.9998 34.9998 0 0 0 78.6963 -15.5071 A 29.1794 29.1794 0 0 0 74.9374 -15.8683 A 7.3133 7.3133 0 0 0 73.0561 -15.6823 L 72.4758 -15.5475 A 2.0000 2.0000 0 0 1 70.0997 -16.9483 L 69.1974 -20.1195 A 2.0000 2.0000 0 0 1 70.4802 -22.5614 L 71.0445 -22.7523 A 7.3133 7.3133 0 0 0 72.7419 -23.5845 A 29.1794 29.1794 0 0 0 75.7476 -25.8704 A 34.9998 34.9998 0 0 0 80.8791 -31.4026 A 54.6688 54.6688 0 0 0 85.8362 -39.4252 L 84.2136 -42.6839 A 54.6688 54.6688 0 0 0 74.8241 -43.5628 A 34.9998 34.9998 0 0 0 67.3169 -42.8016 A 29.1794 29.1794 0 0 0 63.6813 -41.7806 A 7.3133 7.3133 0 0 0 61.9943 -40.9275 L 61.5018 -40.5923 A 2.0000 2.0000 0 0 1 58.7802 -41.0402 L 56.7933 -43.6713 A 2.0000 2.0000 0 0 1 57.1073 -46.4116 L 57.5645 -46.7935 A 7.3133 7.3133 0 0 0 58.8467 -48.1827 A 29.1794 29.1794 0 0 0 60.8237 -51.4000 A 34.9998 34.9998 0 0 0 63.6102 -58.4124 A 54.6688 54.6688 0 0 0 65.3345 -67.6839 L 62.6442 -70.1364 A 54.6688 54.6688 0 0 0 53.5713 -67.5640 A 34.9998 34.9998 0 0 0 46.8460 -64.1424 A 29.1794 29.1794 0 0 0 43.8248 -61.8770 A 7.3133 7.3133 0 0 0 42.5598 -60.4721 L 42.2217 -59.9816 A 2.0000 2.0000 0 0 1 39.5221 -59.4160 L 36.7189 -61.1517 A 2.0000 2.0000 0 0 1 36.0218 -63.8204 L 36.3102 -64.3417 A 7.3133 7.3133 0 0 0 37.0039 -66.1003 A 29.1794 29.1794 0 0 0 37.6852 -69.8145 A 34.9998 34.9998 0 0 0 37.7504 -77.3599 A 54.6688 54.6688 0 0 0 36.0089 -86.6283 L 32.6144 -87.9433 A 54.6688 54.6688 0 0 0 25.0834 -82.2671 A 34.9998 34.9998 0 0 0 20.0483 -76.6471 A 29.1794 29.1794 0 0 0 18.0494 -73.4433 A 7.3133 7.3133 0 0 0 17.3774 -71.6763 L 17.2394 -71.0968 A 2.0000 2.0000 0 0 1 14.9263 -69.5942 L 11.6854 -70.2000 A 2.0000 2.0000 0 0 1 10.0713 -72.4367 L 10.1519 -73.0269 A 7.3133 7.3133 0 0 0 10.1636 -74.9174 A 29.1794 29.1794 0 0 0 9.4571 -78.6269 A 34.9998 34.9998 0 0 0 6.7921 -85.6864 A 54.6688 54.6688 0 0 0 1.8202 -93.6998 L -1.8202 -93.6998 A 54.6688 54.6688 0 0 0 -6.7921 -85.6864 A 34.9998 34.9998 0 0 0 -9.4571 -78.6269 A 29.1794 29.1794 0 0 0 -10.1636 -74.9174 A 7.3133 7.3133 0 0 0 -10.1519 -73.0269 L -10.0713 -72.4367 A 2.0000 2.0000 0 0 1 -11.6854 -70.2000 L -14.9263 -69.5942 A 2.0000 2.0000 0 0 1 -17.2394 -71.0968 L -17.3774 -71.6763 A 7.3133 7.3133 0 0 0 -18.0494 -73.4433 A 29.1794 29.1794 0 0 0 -20.0483 -76.6471 A 34.9998 34.9998 0 0 0 -25.0834 -82.2671 A 54.6688 54.6688 0 0 0 -32.6144 -87.9433 L -36.0089 -86.6283 A 54.6688 54.6688 0 0 0 -37.7504 -77.3599 A 34.9998 34.9998 0 0 0 -37.6852 -69.8145 A 29.1794 29.1794 0 0 0 -37.0039 -66.1003 A 7.3133 7.3133 0 0 0 -36.3102 -64.3417 L -36.0218 -63.8204 A 2.0000 2.0000 0 0 1 -36.7189 -61.1517 L -39.5221 -59.4160 A 2.0000 2.0000 0 0 1 -42.2217 -59.9816 L -42.5598 -60.4721 A 7.3133 7.3133 0 0 0 -43.8248 -61.8770 A 29.1794 29.1794 0 0 0 -46.8460 -64.1424 A 34.9998 34.9998 0 0 0 -53.5713 -67.5640 A 54.6688 54.6688 0 0 0 -62.6442 -70.1364 L -65.3345 -67.6839 A 54.6688 54.6688 0 0 0 -63.6102 -58.4124 A 34.9998 34.9998 0 0 0 -60.8237 -51.4000 A 29.1794 29.1794 0 0 0 -58.8467 -48.1827 A 7.3133 7.3133 0 0 0 -57.5645 -46.7935 L -57.1073 -46.4116 A 2.0000 2.0000 0 0 1 -56.7933 -43.6713 L -58.7802 -41.0402 A 2.0000 2.0000 0 0 1 -61.5018 -40.5923 L -61.9943 -40.9275 A 7.3133 7.3133 0 0 0 -63.6813 -41.7806 A 29.1794 29.1794 0 0 0 -67.3169 -42.8016 A 34.9998 34.9998 0 0 0 -74.8241 -43.5628 A 54.6688 54.6688 0 0 0 -84.2136 -42.6839 L -85.8362 -39.4252 A 54.6688 54.6688 0 0 0 -80.8791 -31.4026 A 34.9998 34.9998 0 0 0 -75.7476 -25.8704 A 29.1794 29.1794 0 0 0 -72.7419 -23.5845 A 7.3133 7.3133 0 0 0 -71.0445 -22.7523 L -70.4802 -22.5614 A 2.0000 2.0000 0 0 1 -69.1974 -20.1195 L -70.0997 -16.9483 A 2.0000 2.0000 0 0 1 -72.4758 -15.5475 L -73.0561 -15.6823 A 7.3133 7.3133 0 0 0 -74.9374 -15.8683 A 29.1794 29.1794 0 0 0 -78.6963 -15.5071 A 34.9998 34.9998 0 0 0 -85.9715 -13.5049 A 54.6688 54.6688 0 0 0 -94.4094 -9.2935 L -94.7453 -5.6687 A 54.6688 54.6688 0 0 0 -87.2249 0.0215 A 34.9998 34.9998 0 0 0 -80.4414 3.3264 A 29.1794 29.1794 0 0 0 -76.8129 4.3722 A 7.3133 7.3133 0 0 0 -74.9295 4.5350 L -74.3343 4.5092 A 2.0000 2.0000 0 0 1 -72.2561 6.3227 L -71.9519 9.6057 A 2.0000 2.0000 0 0 1 -73.6615 11.7703 L -74.2512 11.8542 A 7.3133 7.3133 0 0 0 -76.0727 12.3604 A 29.1794 29.1794 0 0 0 -79.4473 14.0551 A 34.9998 34.9998 0 0 0 -85.5079 18.5502 A 54.6688 54.6688 0 0 0 -91.8548 25.5253 L -90.8586 29.0267 A 54.6688 54.6688 0 0 0 -81.7904 31.6159 A 34.9998 34.9998 0 0 0 -74.2712 32.2472 A 29.1794 29.1794 0 0 0 -70.5099 31.9116 A 7.3133 7.3133 0 0 0 -68.6948 31.3830 L -68.1492 31.1439 A 2.0000 2.0000 0 0 1 -65.5562 32.0843 L -64.0866 35.0357 A 2.0000 2.0000 0 0 1 -64.8987 37.6717 L -65.4184 37.9630 A 7.3133 7.3133 0 0 0 -66.9340 39.0930 A 29.1794 29.1794 0 0 0 -69.4685 41.8923 A 34.9998 34.9998 0 0 0 -73.4961 48.2732 A 54.6688 54.6688 0 0 0 -76.8946 57.0701 L -74.7008 59.9751 A 54.6688 54.6688 0 0 0 -65.3097 59.1137 A 34.9998 34.9998 0 0 0 -58.0702 56.9861 A 29.1794 29.1794 0 0 0 -54.6841 55.3144 A 7.3133 7.3133 0 0 0 -53.1826 54.1658 L -52.7601 53.7458 A 2.0000 2.0000 0 0 1 -50.0025 53.6860 L -47.5660 55.9072 A 2.0000 2.0000 0 0 1 -47.3711 58.6585 L -47.7504 59.1179 A 7.3133 7.3133 0 0 0 -48.7555 60.7191 A 29.1794 29.1794 0 0 0 -50.1076 64.2449 A 34.9998 34.9998 0 0 0 -51.5582 71.6499 A 54.6688 54.6688 0 0 0 -51.5494 81.0804 L -48.4543 82.9968 A 54.6688 54.6688 0 0 0 -40.0086 78.8011 A 34.9998 34.9998 0 0 0 -34.0265 74.2019 A 29.1794 29.1794 0 0 0 -31.4730 71.4199 A 7.3133 7.3133 0 0 0 -30.4877 69.8065 L -30.2455 69.2622 A 2.0000 2.0000 0 0 1 -27.6958 68.2103 L -24.6214 69.4013 A 2.0000 2.0000 0 0 1 -23.4457 71.8965 L -23.6334 72.4619 A 7.3133 7.3133 0 0 0 -23.9923 74.3180 A 29.1794 29.1794 0 0 0 -23.9794 78.0942 A 34.9998 34.9998 0 0 0 -22.6570 85.5231 A 54.6688 54.6688 0 0 0 -19.2422 94.3137 L -15.6638 94.9826 A 54.6688 54.6688 0 0 0 -9.3041 88.0192 A 34.9998 34.9998 0 0 0 -5.3873 81.5696 A 29.1794 29.1794 0 0 0 -4.0112 78.0531 A 7.3133 7.3133 0 0 0 -3.6753 76.1927 L -3.6461 75.5977 A 2.0000 2.0000 0 0 1 -1.6485 73.6957 L 1.6485 73.6957 A 2.0000 2.0000 0 0 1 3.6461 75.5977 L 3.6753 76.1927 A 7.3133 7.3133 0 0 0 4.0112 78.0531 A 29.1794 29.1794 0 0 0 5.3873 81.5696 A 34.9998 34.9998 0 0 0 9.3041 88.0192 A 54.6688 54.6688 0 0 0 15.6638 94.9826 L 19.2422 94.3137 A 54.6688 54.6688 0 0 0 22.6570 85.5231 A 34.9998 34.9998 0 0 0 23.9794 78.0942 A 29.1794 29.1794 0 0 0 23.9923 74.3180 A 7.3133 7.3133 0 0 0 23.6334 72.4619 L 23.4457 71.8965 A 2.0000 2.0000 0 0 1 24.6214 69.4013 L 27.6958 68.2103 A 2.0000 2.0000 0 0 1 30.2455 69.2622 L 30.4877 69.8065 A 7.3133 7.3133 0 0 0 31.4730 71.4199 A 29.1794 29.1794 0 0 0 34.0265 74.2019 A 34.9998 34.9998 0 0 0 40.0086 78.8011 A 54.6688 54.6688 0 0 0 48.4543 82.9968 L 51.5494 81.0804 A 54.6688 54.6688 0 0 0 51.5582 71.6499 A 34.9998 34.9998 0 0 0 50.1076 64.2449 A 29.1794 29.1794 0 0 0 48.7555 60.7191 A 7.3133 7.3133 0 0 0 47.7504 59.1179 L 47.3711 58.6585 A 2.0000 2.0000 0 0 1 47.5660 55.9072 L 50.0025 53.6860 A 2.0000 2.0000 0 0 1 52.7601 53.7458 L 53.1826 54.1658 A 7.3133 7.3133 0 0 0 54.6841 55.3144 A 29.1794 29.1794 0 0 0 58.0702 56.9861 A 34.9998 34.9998 0 0 0 65.3097 59.1137 A 54.6688 54.6688 0 0 0 74.7008 59.9751 L 76.8946 57.0701 A 54.6688 54.6688 0 0 0 73.4961 48.2732 A 34.9998 34.9998 0 0 0 69.4685 41.8923 A 29.1794 29.1794 0 0 0 66.9340 39.0930 A 7.3133 7.3133 0 0 0 65.4184 37.9630 L 64.8987 37.6717 A 2.0000 2.0000 0 0 1 64.0866 35.0357 L 65.5562 32.0843 A 2.0000 2.0000 0 0 1 68.1492 31.1439 L 68.6948 31.3830 A 7.3133 7.3133 0 0 0 70.5099 31.9116 A 29.1794 29.1794 0 0 0 74.2712 32.2472 A 34.9998 34.9998 0 0 0 81.7904 31.6159 A 54.6688 54.6688 0 0 0 90.8586 29.0267 L 91.8548 25.5253 A 54.6688 54.6688 0 0 0 85.5079 18.5502 A 34.9998 34.9998 0 0 0 79.4473 14.0551 A 29.1794 29.1794 0 0 0 76.0727 12.3604 A 7.3133 7.3133 0 0 0 74.2512 11.8542 L 73.6615 11.7703 A 2.0000 2.0000 0 0 1 71.9519 9.6057 L 72.2561 6.3227 A 2.0000 2.0000 0 0 1 74.3343 4.5092 Z" stroke="green" stroke-width="1" fill="none" /><path d="M 16.0000 -2.7172 L 10.3923 -2.7172 A 2.0000 2.0000 0 0 1 8.6603 -3.7172 A 10.0000 10.0000 0 1 0 8.6603 6.2828 A 2.0000 2.0000 0 0 1 10.3923 5.2828 L 16.0000 5.2828 A 2.0000 2.0000 0 0 0 18.0000 3.2828 L 18.0000 -0.7172 A 2.0000 2.0000 0 0 0 16.0000 -2.7172 Z" stroke="green" stroke-width="1" fill="none" /><path d="M 51.0028 -11.1656 A 52.5000 52.5000 0 1 0 51.0028 13.7313 A 4.0000 4.0000 0 0 0 47.1169 8.7828 L 24.4285 8.7828 A 4.0000 4.0000 0 0 0 20.8094 11.0791 A 23.0000 23.0000 0 1 1 20.8094 -8.5135 A 4.0000 4.0000 0 0 0 24.4285 -6.2172 L 47.1169 -6.2172 A 4.0000 4.0000 0 0 0 51.0028 -11.1656 Z" stroke="green" stroke-width="1" fill="none" /></svg>