0
SECTION
2
ENTITIES
0
LINE
8
PARAMETRIX
10
94.3691
20
-2.9051
11
94.9550
21
-2.9232
0
ARC
8
PARAMETRIX
10
95.2049
20
5.1949
40
8.1219
50
268.2367
51
281.2683
0
ARC
8
PARAMETRIX
10
90.4561
20
29.0292
40
32.4247
50
281.2683
51
287.7798
0
ARC
8
PARAMETRIX
10
88.4799
20
35.1919
40
38.8965
50
287.7798
51
298.6391
0
ARC
8
PARAMETRIX
10
78.0009
20
54.3805
40
60.7600
50
298.6391
51
307.3229
0
LINE
8
PARAMETRIX
10
114.8401
20
6.0623
11
114.4610
21
11.1215
0
ARC
8
PARAMETRIX
10
85.2347
20
-42.1477
40
60.7600
50
61.2485
51
69.9323
0
ARC
8
PARAMETRIX
10
92.7367
20
-21.6116
40
38.8965
50
69.9323
51
80.7916
0
ARC
8
PARAMETRIX
10
93.7724
20
-15.2232
40
32.4247
50
80.7916
51
87.3032
0
ARC
8
PARAMETRIX
10
94.9158
20
9.0527
40
8.1219
50
87.3032
51
100.3347
0
LINE
8
PARAMETRIX
10
93.4588
20
17.0428
11
92.8821
21
16.9377
0
ARC
8
PARAMETRIX
10
92.5233
20
18.9052
40
2.0000
50
192.8571
51
280.3347
0
LINE
8
PARAMETRIX
10
90.5735
20
18.4602
11
89.6134
21
22.6663
0
ARC
8
PARAMETRIX
10
91.5633
20
23.1113
40
2.0000
50
105.3796
51
192.8571
0
LINE
8
PARAMETRIX
10
91.0329
20
25.0397
11
91.5981
21
25.1952
0
ARC
8
PARAMETRIX
10
89.4440
20
33.0263
40
8.1219
50
285.3796
51
298.4111
0
ARC
8
PARAMETRIX
10
77.8809
20
54.4019
40
32.4247
50
298.4111
51
304.9227
0
ARC
8
PARAMETRIX
10
74.1760
20
59.7083
40
38.8965
50
304.9227
51
315.7819
0
ARC
8
PARAMETRIX
10
58.5066
20
74.9557
40
60.7600
50
315.7819
51
324.4658
0
LINE
8
PARAMETRIX
10
107.9512
20
39.6427
11
106.0977
21
44.3653
0
ARC
8
PARAMETRIX
10
93.8712
20
-15.1519
40
60.7600
50
78.3914
51
87.0752
0
ARC
8
PARAMETRIX
10
94.9868
20
6.6832
40
38.8965
50
87.0752
51
97.9345
0
ARC
8
PARAMETRIX
10
94.0934
20
13.0930
40
32.4247
50
97.9345
51
104.4460
0
ARC
8
PARAMETRIX
10
88.0307
20
36.6274
40
8.1219
50
104.4460
51
117.4776
0
LINE
8
PARAMETRIX
10
84.2832
20
43.8331
11
83.7631
21
43.5627
0
ARC
8
PARAMETRIX
10
82.8403
20
45.3371
40
2.0000
50
210.0000
51
297.4776
0
LINE
8
PARAMETRIX
10
81.1083
20
44.3371
11
78.9512
21
48.0733
0
ARC
8
PARAMETRIX
10
80.6832
20
49.0733
40
2.0000
50
122.5224
51
210.0000
0
LINE
8
PARAMETRIX
10
79.6080
20
50.7597
11
80.1022
21
51.0748
0
ARC
8
PARAMETRIX
10
75.7356
20
57.9231
40
8.1219
50
302.5224
51
315.5540
0
ARC
8
PARAMETRIX
10
58.3856
20
74.9408
40
32.4247
50
315.5540
51
322.0655
0
ARC
8
PARAMETRIX
10
53.2812
20
78.9194
40
38.8965
50
322.0655
51
332.9248
0
ARC
8
PARAMETRIX
10
33.8137
20
88.8708
40
60.7600
50
332.9248
51
341.6086
0
LINE
8
PARAMETRIX
10
91.4703
20
69.7006
11
88.3072
21
73.6671
0
ARC
8
PARAMETRIX
10
94.1669
20
13.1903
40
60.7600
50
95.5342
51
104.2181
0
ARC
8
PARAMETRIX
10
88.7969
20
34.3841
40
38.8965
50
104.2181
51
115.0773
0
ARC
8
PARAMETRIX
10
86.0539
20
40.2458
40
32.4247
50
115.0773
51
121.5889
0
ARC
8
PARAMETRIX
10
73.3236
20
60.9477
40
8.1219
50
121.5889
51
134.6204
0
LINE
8
PARAMETRIX
10
67.6187
20
66.7287
11
67.2015
21
66.3169
0
ARC
8
PARAMETRIX
10
65.7967
20
67.7405
40
2.0000
50
227.1429
51
314.6204
0
LINE
8
PARAMETRIX
10
64.4363
20
66.2744
11
61.2737
21
69.2088
0
ARC
8
PARAMETRIX
10
62.6341
20
70.6749
40
2.0000
50
139.6653
51
227.1429
0
LINE
8
PARAMETRIX
10
61.1095
20
71.9694
11
61.4889
21
72.4162
0
ARC
8
PARAMETRIX
10
55.2978
20
77.6732
40
8.1219
50
319.6653
51
332.6968
0
ARC
8
PARAMETRIX
10
33.7025
20
88.8208
40
32.4247
50
332.6968
51
339.2084
0
ARC
8
PARAMETRIX
10
27.6522
20
91.1181
40
38.8965
50
339.2084
51
350.0677
0
ARC
8
PARAMETRIX
10
6.1163
20
94.8893
40
60.7600
50
350.0677
51
358.7515
0
LINE
8
PARAMETRIX
10
66.8619
20
93.5654
11
62.6701
21
96.4233
0
ARC
8
PARAMETRIX
10
86.0954
20
40.3605
40
60.7600
50
112.6771
51
121.3609
0
ARC
8
PARAMETRIX
10
74.7170
20
59.0299
40
38.8965
50
121.3609
51
132.2202
0
ARC
8
PARAMETRIX
10
70.3681
20
63.8227
40
32.4247
50
132.2202
51
138.7317
0
ARC
8
PARAMETRIX
10
52.1014
20
79.8524
40
8.1219
50
138.7317
51
151.7633
0
LINE
8
PARAMETRIX
10
44.9460
20
83.6950
11
44.6686
21
83.1786
0
ARC
8
PARAMETRIX
10
42.9066
20
84.1249
40
2.0000
50
244.2857
51
331.7633
0
LINE
8
PARAMETRIX
10
42.0389
20
82.3229
11
38.1519
21
84.1948
0
ARC
8
PARAMETRIX
10
39.0196
20
85.9968
40
2.0000
50
156.8081
51
244.2857
0
LINE
8
PARAMETRIX
10
37.1812
20
86.7844
11
37.4121
21
87.3232
0
ARC
8
PARAMETRIX
10
29.9465
20
90.5217
40
8.1219
50
336.8081
51
349.8397
0
ARC
8
PARAMETRIX
10
6.0248
20
94.8088
40
32.4247
50
349.8397
51
356.3512
0
ARC
8
PARAMETRIX
10
-0.4339
20
95.2206
40
38.8965
50
356.3512
51
7.2105
0
ARC
8
PARAMETRIX
10
-22.1245
20
92.4764
40
60.7600
50
7.2105
51
15.8944
0
LINE
8
PARAMETRIX
10
36.3126
20
109.1164
11
31.4646
21
110.6118
0
ARC
8
PARAMETRIX
10
70.3739
20
63.9444
40
60.7600
50
129.8199
51
138.5038
0
ARC
8
PARAMETRIX
10
53.9982
20
78.4306
40
38.8965
50
138.5038
51
149.3630
0
ARC
8
PARAMETRIX
10
48.4298
20
81.7286
40
32.4247
50
149.3630
51
155.8746
0
ARC
8
PARAMETRIX
10
26.2498
20
91.6620
40
8.1219
50
155.8746
51
168.9061
0
LINE
8
PARAMETRIX
10
18.2796
20
93.2248
11
18.1668
21
92.6496
0
ARC
8
PARAMETRIX
10
16.2042
20
93.0344
40
2.0000
50
261.4286
51
348.9061
0
LINE
8
PARAMETRIX
10
15.9061
20
91.0567
11
11.6400
21
91.6997
0
ARC
8
PARAMETRIX
10
11.9381
20
93.6774
40
2.0000
50
173.9510
51
261.4286
0
LINE
8
PARAMETRIX
10
9.9492
20
93.8881
11
10.0110
21
94.4711
0
ARC
8
PARAMETRIX
10
1.9343
20
95.3269
40
8.1219
50
353.9510
51
6.9825
0
ARC
8
PARAMETRIX
10
-22.1883
20
92.3725
40
32.4247
50
6.9825
51
13.4941
0
ARC
8
PARAMETRIX
10
-28.4814
20
90.8624
40
38.8965
50
13.4941
51
24.3534
0
ARC
8
PARAMETRIX
10
-48.3995
20
81.8466
40
60.7600
50
24.3534
51
33.0372
0
LINE
8
PARAMETRIX
10
2.5367
20
114.9720
11
-2.5367
21
114.9720
0
ARC
8
PARAMETRIX
10
48.3995
20
81.8466
40
60.7600
50
146.9628
51
155.6466
0
ARC
8
PARAMETRIX
10
28.4814
20
90.8624
40
38.8965
50
155.6466
51
166.5059
0
ARC
8
PARAMETRIX
10
22.1883
20
92.3725
40
32.4247
50
166.5059
51
173.0175
0
ARC
8
PARAMETRIX
10
-1.9343
20
95.3269
40
8.1219
50
173.0175
51
186.0490
0
LINE
8
PARAMETRIX
10
-10.0110
20
94.4711
11
-9.9492
21
93.8881
0
ARC
8
PARAMETRIX
10
-11.9381
20
93.6774
40
2.0000
50
278.5714
51
6.0490
0
LINE
8
PARAMETRIX
10
-11.6400
20
91.6997
11
-15.9061
21
91.0567
0
ARC
8
PARAMETRIX
10
-16.2042
20
93.0344
40
2.0000
50
191.0939
51
278.5714
0
LINE
8
PARAMETRIX
10
-18.1668
20
92.6496
11
-18.2796
21
93.2248
0
ARC
8
PARAMETRIX
10
-26.2498
20
91.6620
40
8.1219
50
11.0939
51
24.1254
0
ARC
8
PARAMETRIX
10
-48.4298
20
81.7286
40
32.4247
50
24.1254
51
30.6370
0
ARC
8
PARAMETRIX
10
-53.9982
20
78.4306
40
38.8965
50
30.6370
51
41.4962
0
ARC
8
PARAMETRIX
10
-70.3739
20
63.9444
40
60.7600
50
41.4962
51
50.1801
0
LINE
8
PARAMETRIX
10
-31.4646
20
110.6118
11
-36.3126
21
109.1164
0
ARC
8
PARAMETRIX
10
22.1245
20
92.4764
40
60.7600
50
164.1056
51
172.7895
0
ARC
8
PARAMETRIX
10
0.4339
20
95.2206
40
38.8965
50
172.7895
51
183.6488
0
ARC
8
PARAMETRIX
10
-6.0248
20
94.8088
40
32.4247
50
183.6488
51
190.1603
0
ARC
8
PARAMETRIX
10
-29.9465
20
90.5217
40
8.1219
50
190.1603
51
203.1919
0
LINE
8
PARAMETRIX
10
-37.4121
20
87.3232
11
-37.1812
21
86.7844
0
ARC
8
PARAMETRIX
10
-39.0196
20
85.9968
40
2.0000
50
295.7143
51
23.1919
0
LINE
8
PARAMETRIX
10
-38.1519
20
84.1948
11
-42.0389
21
82.3229
0
ARC
8
PARAMETRIX
10
-42.9066
20
84.1249
40
2.0000
50
208.2367
51
295.7143
0
LINE
8
PARAMETRIX
10
-44.6686
20
83.1786
11
-44.9460
21
83.6950
0
ARC
8
PARAMETRIX
10
-52.1014
20
79.8524
40
8.1219
50
28.2367
51
41.2683
0
ARC
8
PARAMETRIX
10
-70.3681
20
63.8227
40
32.4247
50
41.2683
51
47.7798
0
ARC
8
PARAMETRIX
10
-74.7170
20
59.0299
40
38.8965
50
47.7798
51
58.6391
0
ARC
8
PARAMETRIX
10
-86.0954
20
40.3605
40
60.7600
50
58.6391
51
67.3229
0
LINE
8
PARAMETRIX
10
-62.6701
20
96.4233
11
-66.8619
21
93.5654
0
ARC
8
PARAMETRIX
10
-6.1163
20
94.8893
40
60.7600
50
181.2485
51
189.9323
0
ARC
8
PARAMETRIX
10
-27.6522
20
91.1181
40
38.8965
50
189.9323
51
200.7916
0
ARC
8
PARAMETRIX
10
-33.7025
20
88.8208
40
32.4247
50
200.7916
51
207.3032
0
ARC
8
PARAMETRIX
10
-55.2978
20
77.6732
40
8.1219
50
207.3032
51
220.3347
0
LINE
8
PARAMETRIX
10
-61.4889
20
72.4162
11
-61.1095
21
71.9694
0
ARC
8
PARAMETRIX
10
-62.6341
20
70.6749
40
2.0000
50
312.8571
51
40.3347
0
LINE
8
PARAMETRIX
10
-61.2737
20
69.2088
11
-64.4363
21
66.2744
0
ARC
8
PARAMETRIX
10
-65.7967
20
67.7405
40
2.0000
50
225.3796
51
312.8571
0
LINE
8
PARAMETRIX
10
-67.2015
20
66.3169
11
-67.6187
21
66.7287
0
ARC
8
PARAMETRIX
10
-73.3236
20
60.9477
40
8.1219
50
45.3796
51
58.4111
0
ARC
8
PARAMETRIX
10
-86.0539
20
40.2458
40
32.4247
50
58.4111
51
64.9227
0
ARC
8
PARAMETRIX
10
-88.7969
20
34.3841
40
38.8965
50
64.9227
51
75.7819
0
ARC
8
PARAMETRIX
10
-94.1669
20
13.1903
40
60.7600
50
75.7819
51
84.4658
0
LINE
8
PARAMETRIX
10
-88.3072
20
73.6671
11
-91.4703
21
69.7006
0
ARC
8
PARAMETRIX
10
-33.8137
20
88.8708
40
60.7600
50
198.3914
51
207.0752
0
ARC
8
PARAMETRIX
10
-53.2812
20
78.9194
40
38.8965
50
207.0752
51
217.9345
0
ARC
8
PARAMETRIX
10
-58.3856
20
74.9408
40
32.4247
50
217.9345
51
224.4460
0
ARC
8
PARAMETRIX
10
-75.7356
20
57.9231
40
8.1219
50
224.4460
51
237.4776
0
LINE
8
PARAMETRIX
10
-80.1022
20
51.0748
11
-79.6080
21
50.7597
0
ARC
8
PARAMETRIX
10
-80.6832
20
49.0733
40
2.0000
50
330.0000
51
57.4776
0
LINE
8
PARAMETRIX
10
-78.9512
20
48.0733
11
-81.1083
21
44.3371
0
ARC
8
PARAMETRIX
10
-82.8403
20
45.3371
40
2.0000
50
242.5224
51
330.0000
0
LINE
8
PARAMETRIX
10
-83.7631
20
43.5627
11
-84.2832
21
43.8331
0
ARC
8
PARAMETRIX
10
-88.0307
20
36.6274
40
8.1219
50
62.5224
51
75.5540
0
ARC
8
PARAMETRIX
10
-94.0934
20
13.0930
40
32.4247
50
75.5540
51
82.0655
0
ARC
8
PARAMETRIX
10
-94.9868
20
6.6832
40
38.8965
50
82.0655
51
92.9248
0
ARC
8
PARAMETRIX
10
-93.8712
20
-15.1519
40
60.7600
50
92.9248
51
101.6086
0
LINE
8
PARAMETRIX
10
-106.0977
20
44.3653
11
-107.9512
21
39.6427
0
ARC
8
PARAMETRIX
10
-58.5066
20
74.9557
40
60.7600
50
215.5342
51
224.2181
0
ARC
8
PARAMETRIX
10
-74.1760
20
59.7083
40
38.8965
50
224.2181
51
235.0773
0
ARC
8
PARAMETRIX
10
-77.8809
20
54.4019
40
32.4247
50
235.0773
51
241.5889
0
ARC
8
PARAMETRIX
10
-89.4440
20
33.0263
40
8.1219
50
241.5889
51
254.6204
0
LINE
8
PARAMETRIX
10
-91.5981
20
25.1952
11
-91.0329
21
25.0397
0
ARC
8
PARAMETRIX
10
-91.5633
20
23.1113
40
2.0000
50
347.1429
51
74.6204
0
LINE
8
PARAMETRIX
10
-89.6134
20
22.6663
11
-90.5735
21
18.4602
0
ARC
8
PARAMETRIX
10
-92.5233
20
18.9052
40
2.0000
50
259.6653
51
347.1429
0
LINE
8
PARAMETRIX
10
-92.8821
20
16.9377
11
-93.4588
21
17.0428
0
ARC
8
PARAMETRIX
10
-94.9158
20
9.0527
40
8.1219
50
79.6653
51
92.6968
0
ARC
8
PARAMETRIX
10
-93.7724
20
-15.2232
40
32.4247
50
92.6968
51
99.2084
0
ARC
8
PARAMETRIX
10
-92.7367
20
-21.6116
40
38.8965
50
99.2084
51
110.0677
0
ARC
8
PARAMETRIX
10
-85.2347
20
-42.1477
40
60.7600
50
110.0677
51
118.7515
0
LINE
8
PARAMETRIX
10
-114.4610
20
11.1215
11
-114.8401
21
6.0623
0
ARC
8
PARAMETRIX
10
-78.0009
20
54.3805
40
60.7600
50
232.6771
51
241.3609
0
ARC
8
PARAMETRIX
10
-88.4799
20
35.1919
40
38.8965
50
241.3609
51
252.2202
0
ARC
8
PARAMETRIX
10
-90.4561
20
29.0292
40
32.4247
50
252.2202
51
258.7317
0
ARC
8
PARAMETRIX
10
-95.2049
20
5.1949
40
8.1219
50
258.7317
51
271.7633
0
LINE
8
PARAMETRIX
10
-94.9550
20
-2.9232
11
-94.3691
21
-2.9051
0
ARC
8
PARAMETRIX
10
-94.3076
20
-4.9042
40
2.0000
50
4.2857
51
91.7633
0
LINE
8
PARAMETRIX
10
-92.3132
20
-4.7547
11
-91.9908
21
-9.0569
0
ARC
8
PARAMETRIX
10
-93.9852
20
-9.2064
40
2.0000
50
276.8081
51
4.2857
0
LINE
8
PARAMETRIX
10
-93.7481
20
-11.1923
11
-94.3301
21
-11.2618
0
ARC
8
PARAMETRIX
10
-93.3673
20
-19.3264
40
8.1219
50
96.8081
51
109.8397
0
ARC
8
PARAMETRIX
10
-85.1192
20
-42.1868
40
32.4247
50
109.8397
51
116.3512
0
ARC
8
PARAMETRIX
10
-82.2466
20
-47.9860
40
38.8965
50
116.3512
51
127.2105
0
ARC
8
PARAMETRIX
10
-69.0247
20
-65.3986
40
60.7600
50
127.2105
51
135.8944
0
LINE
8
PARAMETRIX
10
-112.6539
20
-23.1106
11
-111.5250
21
-28.0568
0
ARC
8
PARAMETRIX
10
-90.5645
20
28.9734
40
60.7600
50
249.8199
51
258.5038
0
ARC
8
PARAMETRIX
10
-94.9219
20
7.5485
40
38.8965
50
258.5038
51
269.3630
0
ARC
8
PARAMETRIX
10
-94.9939
20
1.0771
40
32.4247
50
269.3630
51
275.8746
0
ARC
8
PARAMETRIX
10
-92.5065
20
-23.0980
40
8.1219
50
275.8746
51
288.9061
0
LINE
8
PARAMETRIX
10
-89.8748
20
-30.7818
11
-89.3203
21
-30.5919
0
ARC
8
PARAMETRIX
10
-88.6722
20
-32.4840
40
2.0000
50
21.4286
51
108.9061
0
LINE
8
PARAMETRIX
10
-86.8105
20
-31.7533
11
-85.2343
21
-35.7693
0
ARC
8
PARAMETRIX
10
-87.0961
20
-36.5000
40
2.0000
50
293.9510
51
21.4286
0
LINE
8
PARAMETRIX
10
-86.2841
20
-38.3278
11
-86.8198
21
-38.5657
0
ARC
8
PARAMETRIX
10
-83.5227
20
-45.9883
40
8.1219
50
113.9510
51
126.9825
0
ARC
8
PARAMETRIX
10
-68.9028
20
-65.4019
40
32.4247
50
126.9825
51
133.4941
0
ARC
8
PARAMETRIX
10
-64.4484
20
-70.0968
40
38.8965
50
133.4941
51
144.3534
0
ARC
8
PARAMETRIX
10
-46.6815
20
-82.8385
40
60.7600
50
144.3534
51
153.0372
0
LINE
8
PARAMETRIX
10
-100.8370
20
-55.2892
11
-98.3004
21
-59.6828
0
ARC
8
PARAMETRIX
10
-95.0810
20
0.9918
40
60.7600
50
266.9628
51
275.6466
0
ARC
8
PARAMETRIX
10
-92.9298
20
-20.7656
40
38.8965
50
275.6466
51
286.5059
0
ARC
8
PARAMETRIX
10
-91.0911
20
-26.9707
40
32.4247
50
286.5059
51
293.0175
0
ARC
8
PARAMETRIX
10
-81.5884
20
-49.3386
40
8.1219
50
293.0175
51
306.0490
0
LINE
8
PARAMETRIX
10
-76.8088
20
-55.9053
11
-76.3349
21
-55.5604
0
ARC
8
PARAMETRIX
10
-75.1580
20
-57.1774
40
2.0000
50
38.5714
51
126.0490
0
LINE
8
PARAMETRIX
10
-73.5943
20
-55.9304
11
-70.9044
21
-59.3034
0
ARC
8
PARAMETRIX
10
-72.4681
20
-60.5504
40
2.0000
50
311.0939
51
38.5714
0
LINE
8
PARAMETRIX
10
-71.1535
20
-62.0577
11
-71.5952
21
-62.4430
0
ARC
8
PARAMETRIX
10
-66.2567
20
-68.5639
40
8.1219
50
131.0939
51
144.1254
0
ARC
8
PARAMETRIX
10
-46.5641
20
-82.8057
40
32.4247
50
144.1254
51
150.6370
0
ARC
8
PARAMETRIX
10
-40.9238
20
-85.9791
40
38.8965
50
150.6370
51
161.4962
0
ARC
8
PARAMETRIX
10
-20.1905
20
-92.9178
40
60.7600
50
161.4962
51
170.1801
0
LINE
8
PARAMETRIX
10
-80.0603
20
-82.5551
11
-76.3413
21
-86.0058
0
ARC
8
PARAMETRIX
10
-91.1492
20
-27.0778
40
60.7600
50
284.1056
51
292.7895
0
ARC
8
PARAMETRIX
10
-82.6804
20
-47.2346
40
38.8965
50
292.7895
51
303.6488
0
ARC
8
PARAMETRIX
10
-79.0944
20
-52.6220
40
32.4247
50
303.6488
51
310.1603
0
ARC
8
PARAMETRIX
10
-63.4208
20
-71.1952
40
8.1219
50
310.1603
51
323.1919
0
LINE
8
PARAMETRIX
10
-56.9180
20
-76.0614
11
-56.5669
21
-75.5921
0
ARC
8
PARAMETRIX
10
-54.9656
20
-76.7904
40
2.0000
50
55.7143
51
143.1919
0
LINE
8
PARAMETRIX
10
-53.8389
20
-75.1379
11
-50.2743
21
-77.5682
0
ARC
8
PARAMETRIX
10
-51.4010
20
-79.2207
40
2.0000
50
328.2367
51
55.7143
0
LINE
8
PARAMETRIX
10
-49.7005
20
-80.2735
11
-50.0091
21
-80.7719
0
ARC
8
PARAMETRIX
10
-43.1035
20
-85.0473
40
8.1219
50
148.2367
51
161.2683
0
ARC
8
PARAMETRIX
10
-20.0880
20
-92.8519
40
32.4247
50
161.2683
51
167.7798
0
ARC
8
PARAMETRIX
10
-13.7629
20
-94.2218
40
38.8965
50
167.7798
51
178.6391
0
ARC
8
PARAMETRIX
10
8.0945
20
-94.7410
40
60.7600
50
178.6391
51
187.3229
0
LINE
8
PARAMETRIX
10
-52.1700
20
-102.4856
11
-47.5990
21
-104.6868
0
ARC
8
PARAMETRIX
10
-79.1183
20
-52.7415
40
60.7600
50
301.2485
51
309.9323
0
ARC
8
PARAMETRIX
10
-65.0845
20
-69.5066
40
38.8965
50
309.9323
51
320.7916
0
ARC
8
PARAMETRIX
10
-60.0699
20
-73.5976
40
32.4247
50
320.7916
51
327.3032
0
ARC
8
PARAMETRIX
10
-39.6181
20
-86.7259
40
8.1219
50
327.3032
51
340.3347
0
LINE
8
PARAMETRIX
10
-31.9698
20
-89.4591
11
-31.7726
21
-88.9071
0
ARC
8
PARAMETRIX
10
-29.8892
20
-89.5802
40
2.0000
50
72.8571
51
160.3347
0
LINE
8
PARAMETRIX
10
-29.2997
20
-87.6690
11
-25.1771
21
-88.9407
0
ARC
8
PARAMETRIX
10
-25.7667
20
-90.8518
40
2.0000
50
345.3796
51
72.8571
0
LINE
8
PARAMETRIX
10
-23.8314
20
-91.3566
11
-23.9794
21
-91.9238
0
ARC
8
PARAMETRIX
10
-16.1204
20
-93.9739
40
8.1219
50
165.3796
51
178.4111
0
ARC
8
PARAMETRIX
10
8.1730
20
-94.6478
40
32.4247
50
178.4111
51
184.9227
0
ARC
8
PARAMETRIX
10
14.6209
20
-94.0924
40
38.8965
50
184.9227
51
195.7819
0
ARC
8
PARAMETRIX
10
35.6603
20
-88.1461
40
60.7600
50
195.7819
51
204.4658
0
LINE
8
PARAMETRIX
10
-19.6440
20
-113.3098
11
-14.6273
21
-114.0659
0
ARC
8
PARAMETRIX
10
-60.0575
20
-73.7189
40
60.7600
50
318.3914
51
327.0752
0
ARC
8
PARAMETRIX
10
-41.7056
20
-85.6026
40
38.8965
50
327.0752
51
337.9345
0
ARC
8
PARAMETRIX
10
-35.7078
20
-88.0338
40
32.4247
50
337.9345
51
344.4460
0
ARC
8
PARAMETRIX
10
-12.2951
20
-94.5505
40
8.1219
50
344.4460
51
357.4776
0
LINE
8
PARAMETRIX
10
-4.1810
20
-94.9080
11
-4.1552
21
-94.3224
0
ARC
8
PARAMETRIX
10
-2.1571
20
-94.4104
40
2.0000
50
90.0000
51
177.4776
0
LINE
8
PARAMETRIX
10
-2.1571
20
-92.4104
11
2.1571
21
-92.4104
0
ARC
8
PARAMETRIX
10
2.1571
20
-94.4104
40
2.0000
50
2.5224
51
90.0000
0
LINE
8
PARAMETRIX
10
4.1552
20
-94.3224
11
4.1810
21
-94.9080
0
ARC
8
PARAMETRIX
10
12.2951
20
-94.5505
40
8.1219
50
182.5224
51
195.5540
0
ARC
8
PARAMETRIX
10
35.7078
20
-88.0338
40
32.4247
50
195.5540
51
202.0655
0
ARC
8
PARAMETRIX
10
41.7056
20
-85.6026
40
38.8965
50
202.0655
51
212.9248
0
ARC
8
PARAMETRIX
10
60.0575
20
-73.7189
40
60.7600
50
212.9248
51
221.6086
0
LINE
8
PARAMETRIX
10
14.6273
20
-114.0659
11
19.6440
21
-113.3098
0
ARC
8
PARAMETRIX
10
-35.6603
20
-88.1461
40
60.7600
50
335.5342
51
344.2181
0
ARC
8
PARAMETRIX
10
-14.6209
20
-94.0924
40
38.8965
50
344.2181
51
355.0773
0
ARC
8
PARAMETRIX
10
-8.1730
20
-94.6478
40
32.4247
50
355.0773
51
1.5889
0
ARC
8
PARAMETRIX
10
16.1204
20
-93.9739
40
8.1219
50
1.5889
51
14.6204
0
LINE
8
PARAMETRIX
10
23.9794
20
-91.9238
11
23.8314
21
-91.3566
0
ARC
8
PARAMETRIX
10
25.7667
20
-90.8518
40
2.0000
50
107.1429
51
194.6204
0
LINE
8
PARAMETRIX
10
25.1771
20
-88.9407
11
29.2997
21
-87.6690
0
ARC
8
PARAMETRIX
10
29.8892
20
-89.5802
40
2.0000
50
19.6653
51
107.1429
0
LINE
8
PARAMETRIX
10
31.7726
20
-88.9071
11
31.9698
21
-89.4591
0
ARC
8
PARAMETRIX
10
39.6181
20
-86.7259
40
8.1219
50
199.6653
51
212.6968
0
ARC
8
PARAMETRIX
10
60.0699
20
-73.5976
40
32.4247
50
212.6968
51
219.2084
0
ARC
8
PARAMETRIX
10
65.0845
20
-69.5066
40
38.8965
50
219.2084
51
230.0677
0
ARC
8
PARAMETRIX
10
79.1183
20
-52.7415
40
60.7600
50
230.0677
51
238.7515
0
LINE
8
PARAMETRIX
10
47.5990
20
-104.6868
11
52.1700
21
-102.4856
0
ARC
8
PARAMETRIX
10
-8.0945
20
-94.7410
40
60.7600
50
352.6771
51
1.3609
0
ARC
8
PARAMETRIX
10
13.7629
20
-94.2218
40
38.8965
50
1.3609
51
12.2202
0
ARC
8
PARAMETRIX
10
20.0880
20
-92.8519
40
32.4247
50
12.2202
51
18.7317
0
ARC
8
PARAMETRIX
10
43.1035
20
-85.0473
40
8.1219
50
18.7317
51
31.7633
0
LINE
8
PARAMETRIX
10
50.0091
20
-80.7719
11
49.7005
21
-80.2735
0
ARC
8
PARAMETRIX
10
51.4010
20
-79.2207
40
2.0000
50
124.2857
51
211.7633
0
LINE
8
PARAMETRIX
10
50.2743
20
-77.5682
11
53.8389
21
-75.1379
0
ARC
8
PARAMETRIX
10
54.9656
20
-76.7904
40
2.0000
50
36.8081
51
124.2857
0
LINE
8
PARAMETRIX
10
56.5669
20
-75.5921
11
56.9180
21
-76.0614
0
ARC
8
PARAMETRIX
10
63.4208
20
-71.1952
40
8.1219
50
216.8081
51
229.8397
0
ARC
8
PARAMETRIX
10
79.0944
20
-52.6220
40
32.4247
50
229.8397
51
236.3512
0
ARC
8
PARAMETRIX
10
82.6804
20
-47.2346
40
38.8965
50
236.3512
51
247.2105
0
ARC
8
PARAMETRIX
10
91.1492
20
-27.0778
40
60.7600
50
247.2105
51
255.8944
0
LINE
8
PARAMETRIX
10
76.3413
20
-86.0058
11
80.0603
21
-82.5551
0
ARC
8
PARAMETRIX
10
20.1905
20
-92.9178
40
60.7600
50
9.8199
51
18.5038
0
ARC
8
PARAMETRIX
10
40.9238
20
-85.9791
40
38.8965
50
18.5038
51
29.3630
0
ARC
8
PARAMETRIX
10
46.5641
20
-82.8057
40
32.4247
50
29.3630
51
35.8746
0
ARC
8
PARAMETRIX
10
66.2567
20
-68.5639
40
8.1219
50
35.8746
51
48.9061
0
LINE
8
PARAMETRIX
10
71.5952
20
-62.4430
11
71.1535
21
-62.0577
0
ARC
8
PARAMETRIX
10
72.4681
20
-60.5504
40
2.0000
50
141.4286
51
228.9061
0
LINE
8
PARAMETRIX
10
70.9044
20
-59.3034
11
73.5943
21
-55.9304
0
ARC
8
PARAMETRIX
10
75.1580
20
-57.1774
40
2.0000
50
53.9510
51
141.4286
0
LINE
8
PARAMETRIX
10
76.3349
20
-55.5604
11
76.8088
21
-55.9053
0
ARC
8
PARAMETRIX
10
81.5884
20
-49.3386
40
8.1219
50
233.9510
51
246.9825
0
ARC
8
PARAMETRIX
10
91.0911
20
-26.9707
40
32.4247
50
246.9825
51
253.4941
0
ARC
8
PARAMETRIX
10
92.9298
20
-20.7656
40
38.8965
50
253.4941
51
264.3534
0
ARC
8
PARAMETRIX
10
95.0810
20
0.9918
40
60.7600
50
264.3534
51
273.0372
0
LINE
8
PARAMETRIX
10
98.3004
20
-59.6828
11
100.8370
21
-55.2892
0
ARC
8
PARAMETRIX
10
46.6815
20
-82.8385
40
60.7600
50
26.9628
51
35.6466
0
ARC
8
PARAMETRIX
10
64.4484
20
-70.0968
40
38.8965
50
35.6466
51
46.5059
0
ARC
8
PARAMETRIX
10
68.9028
20
-65.4019
40
32.4247
50
46.5059
51
53.0175
0
ARC
8
PARAMETRIX
10
83.5227
20
-45.9883
40
8.1219
50
53.0175
51
66.0490
0
LINE
8
PARAMETRIX
10
86.8198
20
-38.5657
11
86.2841
21
-38.3278
0
ARC
8
PARAMETRIX
10
87.0961
20
-36.5000
40
2.0000
50
158.5714
51
246.0490
0
LINE
8
PARAMETRIX
10
85.2343
20
-35.7693
11
86.8105
21
-31.7533
0
ARC
8
PARAMETRIX
10
88.6722
20
-32.4840
40
2.0000
50
71.0939
51
158.5714
0
LINE
8
PARAMETRIX
10
89.3203
20
-30.5919
11
89.8748
21
-30.7818
0
ARC
8
PARAMETRIX
10
92.5065
20
-23.0980
40
8.1219
50
251.0939
51
264.1254
0
ARC
8
PARAMETRIX
10
94.9939
20
1.0771
40
32.4247
50
264.1254
51
270.6370
0
ARC
8
PARAMETRIX
10
94.9219
20
7.5485
40
38.8965
50
270.6370
51
281.4962
0
ARC
8
PARAMETRIX
10
90.5645
20
28.9734
40
60.7600
50
281.4962
51
290.1801
0
LINE
8
PARAMETRIX
10
111.5250
20
-28.0568
11
112.6539
21
-23.1106
0
ARC
8
PARAMETRIX
10
69.0247
20
-65.3986
40
60.7600
50
44.1056
51
52.7895
0
ARC
8
PARAMETRIX
10
82.2466
20
-47.9860
40
38.8965
50
52.7895
51
63.6488
0
ARC
8
PARAMETRIX
10
85.1192
20
-42.1868
40
32.4247
50
63.6488
51
70.1603
0
ARC
8
PARAMETRIX
10
93.3673
20
-19.3264
40
8.1219
50
70.1603
51
83.1919
0
LINE
8
PARAMETRIX
10
94.3301
20
-11.2618
11
93.7481
21
-11.1923
0
ARC
8
PARAMETRIX
10
93.9852
20
-9.2064
40
2.0000
50
175.7143
51
263.1919
0
LINE
8
PARAMETRIX
10
91.9908
20
-9.0569
11
92.3132
21
-4.7547
0
ARC
8
PARAMETRIX
10
94.3076
20
-4.9042
40
2.0000
50
88.2367
51
175.7143
0
CIRCLE
8
PARAMETRIX
10
0.0000
20
0.0000
40
75.0000
0
ENDSEC
0
EOF
