<svg width="263" height="262" viewBox="-128 -127 263 262" xmlns="http://www.w3.org/2000/svg"><path d="M 94.3691 3.8112 L 94.9550 3.8293 A 8.1219 8.1219 0 0 0 96.7920 3.6765 A 32.4247 32.4247 0 0 0 100.3573 2.7529 A 38.8965 38.8965 0 0 0 107.1226 -0.1480 A 60.7600 60.7600 0 0 0 114.8401 -5.1562 L 114.4610 -10.2154 A 60.7600 60.7600 0 0 0 106.0832 -14.0174 A 38.8965 38.8965 0 0 0 98.9611 -15.8776 A 32.4247 32.4247 0 0 0 95.2980 -16.2595 A 8.1219 8.1219 0 0 0 93.4588 -16.1368 L 92.8821 -16.0316 A 2.0000 2.0000 0 0 1 90.5735 -17.5541 L 89.6134 -21.7602 A 2.0000 2.0000 0 0 1 91.0329 -24.1336 L 91.5981 -24.2891 A 8.1219 8.1219 0 0 0 93.3084 -24.9765 A 32.4247 32.4247 0 0 0 96.4431 -26.9100 A 38.8965 38.8965 0 0 0 102.0527 -31.6762 A 60.7600 60.7600 0 0 0 107.9512 -38.7366 L 106.0977 -43.4593 A 60.7600 60.7600 0 0 0 96.9715 -44.6230 A 38.8965 38.8965 0 0 0 89.6175 -44.3013 A 32.4247 32.4247 0 0 0 86.0045 -43.5865 A 8.1219 8.1219 0 0 0 84.2832 -42.9271 L 83.7631 -42.6566 A 2.0000 2.0000 0 0 1 81.1083 -43.4310 L 78.9512 -47.1672 A 2.0000 2.0000 0 0 1 79.6080 -49.8536 L 80.1022 -50.1687 A 8.1219 8.1219 0 0 0 81.5339 -51.3297 A 32.4247 32.4247 0 0 0 83.9594 -54.1013 A 38.8965 38.8965 0 0 0 87.9150 -60.3092 A 60.7600 60.7600 0 0 0 91.4703 -68.7946 L 88.3072 -72.7611 A 60.7600 60.7600 0 0 0 79.2434 -71.1831 A 38.8965 38.8965 0 0 0 72.3110 -68.7080 A 32.4247 32.4247 0 0 0 69.0691 -66.9601 A 8.1219 8.1219 0 0 0 67.6187 -65.8226 L 67.2015 -65.4109 A 2.0000 2.0000 0 0 1 64.4363 -65.3683 L 61.2737 -68.3027 A 2.0000 2.0000 0 0 1 61.1095 -71.0634 L 61.4889 -71.5102 A 8.1219 8.1219 0 0 0 62.5148 -73.0416 A 32.4247 32.4247 0 0 0 64.0157 -76.4050 A 38.8965 38.8965 0 0 0 65.9657 -83.5030 A 60.7600 60.7600 0 0 0 66.8619 -92.6593 L 62.6701 -95.5172 A 60.7600 60.7600 0 0 0 54.4742 -91.3378 A 38.8965 38.8965 0 0 0 48.5793 -86.9293 A 32.4247 32.4247 0 0 0 45.9967 -84.3035 A 8.1219 8.1219 0 0 0 44.9460 -82.7890 L 44.6686 -82.2726 A 2.0000 2.0000 0 0 1 42.0389 -81.4169 L 38.1519 -83.2887 A 2.0000 2.0000 0 0 1 37.1812 -85.8783 L 37.4121 -86.4171 A 8.1219 8.1219 0 0 0 37.9410 -88.1829 A 32.4247 32.4247 0 0 0 38.3838 -91.8392 A 38.8965 38.8965 0 0 0 38.1550 -99.1967 A 60.7600 60.7600 0 0 0 36.3126 -108.2104 L 31.4646 -109.7058 A 60.7600 60.7600 0 0 0 24.8647 -103.2962 A 38.8965 38.8965 0 0 0 20.5311 -97.3460 A 32.4247 32.4247 0 0 0 18.8372 -94.0756 A 8.1219 8.1219 0 0 0 18.2796 -92.3187 L 18.1668 -91.7435 A 2.0000 2.0000 0 0 1 15.9061 -90.1507 L 11.6400 -90.7937 A 2.0000 2.0000 0 0 1 9.9492 -92.9821 L 10.0110 -93.5650 A 8.1219 8.1219 0 0 0 9.9960 -95.4082 A 32.4247 32.4247 0 0 0 9.3414 -99.0326 A 38.8965 38.8965 0 0 0 6.9541 -105.9958 A 60.7600 60.7600 0 0 0 2.5367 -114.0659 L -2.5367 -114.0659 A 60.7600 60.7600 0 0 0 -6.9541 -105.9958 A 38.8965 38.8965 0 0 0 -9.3414 -99.0326 A 32.4247 32.4247 0 0 0 -9.9960 -95.4082 A 8.1219 8.1219 0 0 0 -10.0110 -93.5650 L -9.9492 -92.9821 A 2.0000 2.0000 0 0 1 -11.6400 -90.7937 L -15.9061 -90.1507 A 2.0000 2.0000 0 0 1 -18.1668 -91.7435 L -18.2796 -92.3187 A 8.1219 8.1219 0 0 0 -18.8372 -94.0756 A 32.4247 32.4247 0 0 0 -20.5311 -97.3460 A 38.8965 38.8965 0 0 0 -24.8647 -103.2962 A 60.7600 60.7600 0 0 0 -31.4646 -109.7058 L -36.3126 -108.2104 A 60.7600 60.7600 0 0 0 -38.1550 -99.1967 A 38.8965 38.8965 0 0 0 -38.3838 -91.8392 A 32.4247 32.4247 0 0 0 -37.9410 -88.1829 A 8.1219 8.1219 0 0 0 -37.4121 -86.4171 L -37.1812 -85.8783 A 2.0000 2.0000 0 0 1 -38.1519 -83.2887 L -42.0389 -81.4169 A 2.0000 2.0000 0 0 1 -44.6686 -82.2726 L -44.9460 -82.7890 A 8.1219 8.1219 0 0 0 -45.9967 -84.3035 A 32.4247 32.4247 0 0 0 -48.5793 -86.9293 A 38.8965 38.8965 0 0 0 -54.4742 -91.3378 A 60.7600 60.7600 0 0 0 -62.6701 -95.5172 L -66.8619 -92.6593 A 60.7600 60.7600 0 0 0 -65.9657 -83.5030 A 38.8965 38.8965 0 0 0 -64.0157 -76.4050 A 32.4247 32.4247 0 0 0 -62.5148 -73.0416 A 8.1219 8.1219 0 0 0 -61.4889 -71.5102 L -61.1095 -71.0634 A 2.0000 2.0000 0 0 1 -61.2737 -68.3027 L -64.4363 -65.3683 A 2.0000 2.0000 0 0 1 -67.2015 -65.4109 L -67.6187 -65.8226 A 8.1219 8.1219 0 0 0 -69.0691 -66.9601 A 32.4247 32.4247 0 0 0 -72.3110 -68.7080 A 38.8965 38.8965 0 0 0 -79.2434 -71.1831 A 60.7600 60.7600 0 0 0 -88.3072 -72.7611 L -91.4703 -68.7946 A 60.7600 60.7600 0 0 0 -87.9150 -60.3092 A 38.8965 38.8965 0 0 0 -83.9594 -54.1013 A 32.4247 32.4247 0 0 0 -81.5339 -51.3297 A 8.1219 8.1219 0 0 0 -80.1022 -50.1687 L -79.6080 -49.8536 A 2.0000 2.0000 0 0 1 -78.9512 -47.1672 L -81.1083 -43.4310 A 2.0000 2.0000 0 0 1 -83.7631 -42.6566 L -84.2832 -42.9271 A 8.1219 8.1219 0 0 0 -86.0045 -43.5865 A 32.4247 32.4247 0 0 0 -89.6175 -44.3013 A 38.8965 38.8965 0 0 0 -96.9715 -44.6230 A 60.7600 60.7600 0 0 0 -106.0977 -43.4593 L -107.9512 -38.7366 A 60.7600 60.7600 0 0 0 -102.0527 -31.6762 A 38.8965 38.8965 0 0 0 -96.4431 -26.9100 A 32.4247 32.4247 0 0 0 -93.3084 -24.9765 A 8.1219 8.1219 0 0 0 -91.5981 -24.2891 L -91.0329 -24.1336 A 2.0000 2.0000 0 0 1 -89.6134 -21.7602 L -90.5735 -17.5541 A 2.0000 2.0000 0 0 1 -92.8821 -16.0316 L -93.4588 -16.1368 A 8.1219 8.1219 0 0 0 -95.2980 -16.2595 A 32.4247 32.4247 0 0 0 -98.9611 -15.8776 A 38.8965 38.8965 0 0 0 -106.0832 -14.0174 A 60.7600 60.7600 0 0 0 -114.4610 -10.2154 L -114.8401 -5.1562 A 60.7600 60.7600 0 0 0 -107.1226 -0.1480 A 38.8965 38.8965 0 0 0 -100.3573 2.7529 A 32.4247 32.4247 0 0 0 -96.7920 3.6765 A 8.1219 8.1219 0 0 0 -94.9550 3.8293 L -94.3691 3.8112 A 2.0000 2.0000 0 0 1 -92.3132 5.6608 L -91.9908 9.9630 A 2.0000 2.0000 0 0 1 -93.7481 12.0984 L -94.3301 12.1678 A 8.1219 8.1219 0 0 0 -96.1238 12.5926 A 32.4247 32.4247 0 0 0 -99.5117 14.0374 A 38.8965 38.8965 0 0 0 -105.7690 17.9142 A 60.7600 60.7600 0 0 0 -112.6539 24.0167 L -111.5250 28.9628 A 60.7600 60.7600 0 0 0 -102.6742 31.4737 A 38.8965 38.8965 0 0 0 -95.3544 32.2517 A 32.4247 32.4247 0 0 0 -91.6752 32.0834 A 8.1219 8.1219 0 0 0 -89.8748 31.6879 L -89.3203 31.4979 A 2.0000 2.0000 0 0 1 -86.8105 32.6594 L -85.2343 36.6754 A 2.0000 2.0000 0 0 1 -86.2841 39.2339 L -86.8198 39.4718 A 8.1219 8.1219 0 0 0 -88.4086 40.4064 A 32.4247 32.4247 0 0 0 -91.2201 42.7856 A 38.8965 38.8965 0 0 0 -96.0568 48.3346 A 60.7600 60.7600 0 0 0 -100.8370 56.1953 L -98.3004 60.5889 A 60.7600 60.7600 0 0 0 -89.1027 60.3794 A 38.8965 38.8965 0 0 0 -81.8788 58.9653 A 32.4247 32.4247 0 0 0 -78.4126 57.7200 A 8.1219 8.1219 0 0 0 -76.8088 56.8114 L -76.3349 56.4664 A 2.0000 2.0000 0 0 1 -73.5943 56.8365 L -70.9044 60.2095 A 2.0000 2.0000 0 0 1 -71.1535 62.9638 L -71.5952 63.3490 A 8.1219 8.1219 0 0 0 -72.8379 64.7104 A 32.4247 32.4247 0 0 0 -74.8233 67.8126 A 38.8965 38.8965 0 0 0 -77.8094 74.5407 A 60.7600 60.7600 0 0 0 -80.0603 83.4611 L -76.3413 86.9119 A 60.7600 60.7600 0 0 0 -67.6140 84.0007 A 38.8965 38.8965 0 0 0 -61.1279 80.5200 A 32.4247 32.4247 0 0 0 -58.1828 78.3084 A 8.1219 8.1219 0 0 0 -56.9180 76.9675 L -56.5669 76.4982 A 2.0000 2.0000 0 0 1 -53.8389 76.0440 L -50.2743 78.4743 A 2.0000 2.0000 0 0 1 -49.7005 81.1796 L -50.0091 81.6779 A 8.1219 8.1219 0 0 0 -50.7953 83.3452 A 32.4247 32.4247 0 0 0 -51.7780 86.8946 A 38.8965 38.8965 0 0 0 -52.6484 94.2040 A 60.7600 60.7600 0 0 0 -52.1700 103.3917 L -47.5990 105.5929 A 60.7600 60.7600 0 0 0 -40.1175 100.2386 A 38.8965 38.8965 0 0 0 -34.9455 95.0008 A 32.4247 32.4247 0 0 0 -32.7831 92.0193 A 8.1219 8.1219 0 0 0 -31.9698 90.3652 L -31.7726 89.8132 A 2.0000 2.0000 0 0 1 -29.2997 88.5751 L -25.1771 89.8467 A 2.0000 2.0000 0 0 1 -23.8314 92.2627 L -23.9794 92.8299 A 8.1219 8.1219 0 0 0 -24.2392 94.6548 A 32.4247 32.4247 0 0 0 -24.1321 98.3363 A 38.8965 38.8965 0 0 0 -22.8093 105.5774 A 60.7600 60.7600 0 0 0 -19.6440 114.2159 L -14.6273 114.9720 A 60.7600 60.7600 0 0 0 -9.0565 107.6504 A 38.8965 38.8965 0 0 0 -5.6581 101.1208 A 32.4247 32.4247 0 0 0 -4.4706 97.6344 A 8.1219 8.1219 0 0 0 -4.1810 95.8140 L -4.1552 95.2284 A 2.0000 2.0000 0 0 1 -2.1571 93.3164 L 2.1571 93.3164 A 2.0000 2.0000 0 0 1 4.1552 95.2284 L 4.1810 95.8140 A 8.1219 8.1219 0 0 0 4.4706 97.6344 A 32.4247 32.4247 0 0 0 5.6581 101.1208 A 38.8965 38.8965 0 0 0 9.0565 107.6504 A 60.7600 60.7600 0 0 0 14.6273 114.9720 L 19.6440 114.2159 A 60.7600 60.7600 0 0 0 22.8093 105.5774 A 38.8965 38.8965 0 0 0 24.1321 98.3363 A 32.4247 32.4247 0 0 0 24.2392 94.6548 A 8.1219 8.1219 0 0 0 23.9794 92.8299 L 23.8314 92.2627 A 2.0000 2.0000 0 0 1 25.1771 89.8467 L 29.2997 88.5751 A 2.0000 2.0000 0 0 1 31.7726 89.8132 L 31.9698 90.3652 A 8.1219 8.1219 0 0 0 32.7831 92.0193 A 32.4247 32.4247 0 0 0 34.9455 95.0008 A 38.8965 38.8965 0 0 0 40.1175 100.2386 A 60.7600 60.7600 0 0 0 47.5990 105.5929 L 52.1700 103.3917 A 60.7600 60.7600 0 0 0 52.6484 94.2040 A 38.8965 38.8965 0 0 0 51.7780 86.8946 A 32.4247 32.4247 0 0 0 50.7953 83.3452 A 8.1219 8.1219 0 0 0 50.0091 81.6779 L 49.7005 81.1796 A 2.0000 2.0000 0 0 1 50.2743 78.4743 L 53.8389 76.0440 A 2.0000 2.0000 0 0 1 56.5669 76.4982 L 56.9180 76.9675 A 8.1219 8.1219 0 0 0 58.1828 78.3084 A 32.4247 32.4247 0 0 0 61.1279 80.5200 A 38.8965 38.8965 0 0 0 67.6140 84.0007 A 60.7600 60.7600 0 0 0 76.3413 86.9119 L 80.0603 83.4611 A 60.7600 60.7600 0 0 0 77.8094 74.5407 A 38.8965 38.8965 0 0 0 74.8233 67.8126 A 32.4247 32.4247 0 0 0 72.8379 64.7104 A 8.1219 8.1219 0 0 0 71.5952 63.3490 L 71.1535 62.9638 A 2.0000 2.0000 0 0 1 70.9044 60.2095 L 73.5943 56.8365 A 2.0000 2.0000 0 0 1 76.3349 56.4664 L 76.8088 56.8114 A 8.1219 8.1219 0 0 0 78.4126 57.7200 A 32.4247 32.4247 0 0 0 81.8788 58.9653 A 38.8965 38.8965 0 0 0 89.1027 60.3794 A 60.7600 60.7600 0 0 0 98.3004 60.5889 L 100.8370 56.1953 A 60.7600 60.7600 0 0 0 96.0568 48.3346 A 38.8965 38.8965 0 0 0 91.2201 42.7856 A 32.4247 32.4247 0 0 0 88.4086 40.4064 A 8.1219 8.1219 0 0 0 86.8198 39.4718 L 86.2841 39.2339 A 2.0000 2.0000 0 0 1 85.2343 36.6754 L 86.8105 32.6594 A 2.0000 2.0000 0 0 1 89.3203 31.4979 L 89.8748 31.6879 A 8.1219 8.1219 0 0 0 91.6752 32.0834 A 32.4247 32.4247 0 0 0 95.3544 32.2517 A 38.8965 38.8965 0 0 0 102.6742 31.4737 A 60.7600 60.7600 0 0 0 111.5250 28.9628 L 112.6539 24.0167 A 60.7600 60.7600 0 0 0 105.7690 17.9142 A 38.8965 38.8965 0 0 0 99.5117 14.0374 A 32.4247 32.4247 0 0 0 96.1238 12.5926 A 8.1219 8.1219 0 0 0 94.3301 12.1678 L 93.7481 12.0984 A 2.0000 2.0000 0 0 1 91.9908 9.9630 L 92.3132 5.6608 A 2.0000 2.0000 0 0 1 94.3691 3.8112 Z" stroke="green" stroke-width="1" fill="none" /><circle cx="0.0000" cy="0.9061" r="75.0000" stroke="green" stroke-width="1" fill="none" /></svg>